<?xml version="1.0" encoding="utf-8"?>
<!-- Generator: Adobe Illustrator 25.0.0, SVG Export Plug-In . SVG Version: 6.00 Build 0)  -->
<svg version="1.1" id="Layer_1" xmlns="http://www.w3.org/2000/svg" xmlns:xlink="http://www.w3.org/1999/xlink" x="0px" y="0px"
	 viewBox="0 0 80 76" style="enable-background:new 0 0 80 76;" xml:space="preserve">
<style type="text/css">
	.st0{fill:#15B86C;}
</style>
<g>
	<path class="st0" d="M17.7,16.3c-1.1-2.7-3.7-4.6-6.6-4.9v10.8l3.4-3.1L17.7,16.3z"/>
	<path class="st0" d="M18.4,23.5v-2.8l-3.8,3.5l-3.5,3.1v2.4l3.5-2.9L18.4,23.5z"/>
	<path class="st0" d="M18.4,35.7L14.6,39l-3.5,3v7.3h7.3V35.7z"/>
	<path class="st0" d="M7.3,42l-3.5-3.2L0,35.4v14h7.3V42z"/>
	<path class="st0" d="M11.1,49.3H7.3v18.1h3.8V49.3z"/>
	<path class="st0" d="M7.3,22V11.3C4.5,11.6,2,13.4,0.8,16l3.1,2.9L7.3,22z"/>
	<path class="st0" d="M7.3,29.6v-2.4L3.8,24L0,20.4v2.7l3.8,3.4L7.3,29.6z"/>
	<path class="st0" d="M7.3,36.8v-2.2l-3.5-3L0,28.2v2l3.8,3.5L7.3,36.8z"/>
	<path class="st0" d="M18.4,30.6v-2.1l-3.8,3.2l-3.5,3V37l3.5-3L18.4,30.6z"/>
	<path class="st0" d="M79.4,16.3c-1.1-2.7-3.7-4.6-6.6-4.9v10.8l3.4-3.1L79.4,16.3z"/>
	<path class="st0" d="M76.2,24.2l-3.5,3.1v2.4l3.5-2.9l3.8-3.2v-2.8L76.2,24.2z"/>
	<path class="st0" d="M72.7,42.1v7.3H80V35.7L76.2,39L72.7,42.1z"/>
	<path class="st0" d="M68.9,67.4h3.8V49.3h-3.8V42l-3.5-3.2l-3.8-3.5v14h7.3V67.4z"/>
	<path class="st0" d="M68.9,22V11.3c-2.8,0.3-5.3,2.1-6.5,4.6l3.1,2.9L68.9,22z"/>
	<path class="st0" d="M68.9,29.6v-2.4L65.4,24l-3.8-3.5v2.7l3.8,3.4L68.9,29.6z"/>
	<path class="st0" d="M68.9,36.8v-2.2l-3.5-3l-3.8-3.3v2l3.8,3.5L68.9,36.8z"/>
	<path class="st0" d="M72.7,34.7V37l3.5-3l3.8-3.4v-2.1l-3.8,3.2L72.7,34.7z"/>
	<path class="st0" d="M50.9,6.2c-1.4-3.5-4.7-5.8-8.4-6.2v13.7l4.3-3.9L50.9,6.2z"/>
	<path class="st0" d="M51.7,15.4v-3.5l-4.8,4.4l-4.4,3.9v3l4.4-3.7L51.7,15.4z"/>
	<path class="st0" d="M51.7,30.8L46.9,35l-4.4,3.9v9.2h9.2V30.8z"/>
	<path class="st0" d="M37.7,38.8l-4.4-4l-4.8-4.4v17.7h9.3V38.8z"/>
	<path class="st0" d="M42.5,48.1h-4.8v19.3h4.8V48.1z"/>
	<path class="st0" d="M37.7,13.5V0c-3.6,0.4-6.7,2.6-8.3,5.9l3.9,3.6L37.7,13.5z"/>
	<path class="st0" d="M37.7,23.1v-3L33.2,16l-4.8-4.5V15l4.8,4.2L37.7,23.1z"/>
	<path class="st0" d="M37.7,32.3v-2.8l-4.4-3.9l-4.8-4.2v2.5l4.8,4.4L37.7,32.3z"/>
	<path class="st0" d="M51.7,24.4v-2.6l-4.8,4.1l-4.4,3.7v2.9l4.4-3.9L51.7,24.4z"/>
	<path class="st0" d="M78.1,71.2H1.9V75h76.2V71.2z"/>
</g>
</svg>
