<svg width="149" height="148" viewBox="0 0 149 148" fill="none" xmlns="http://www.w3.org/2000/svg">
<path d="M28.065 70.4232L17.335 59.6932L6.66666 70.4232" stroke="#070600" stroke-width="3" stroke-linecap="round" stroke-linejoin="round"/>
<path d="M120.935 77.5768L131.665 88.3067L142.395 77.5768" stroke="#070600" stroke-width="3" stroke-linecap="round" stroke-linejoin="round"/>
<path d="M131.603 88.3067V74C131.603 42.4267 106.012 16.8966 74.5 16.8966C56.4933 16.8966 40.3983 25.2835 29.915 38.2951" stroke="#070600" stroke-width="3" stroke-linecap="round" stroke-linejoin="round"/>
<path d="M17.3967 59.6932V73.9999C17.3967 105.573 42.9883 131.103 74.5 131.103C92.5067 131.103 108.602 122.716 119.085 109.705" stroke="#070600" stroke-width="3" stroke-linecap="round" stroke-linejoin="round"/>
<path d="M74.5 67.04L71.6467 72C71.0067 73.0934 71.54 74 72.7933 74H76.18C77.46 74 77.9667 74.9067 77.3267 76L74.5 80.96" stroke="#070600" stroke-width="3" stroke-linecap="round" stroke-linejoin="round"/>
<path d="M64.6333 94.1067V91.0134C58.5 87.3067 53.46 80.0801 53.46 72.4001C53.46 59.2001 65.5933 48.8534 79.3 51.8401C85.3267 53.1734 90.6067 57.1734 93.3533 62.6934C98.9267 73.8934 93.06 85.7867 84.4467 90.9867V94.0801C84.4467 94.8534 84.74 96.6401 81.8867 96.6401H67.1933C64.26 96.6667 64.6333 95.5201 64.6333 94.1067Z" stroke="#070600" stroke-width="3" stroke-linecap="round" stroke-linejoin="round"/>
<path d="M65.1667 104.667C71.2733 102.933 77.7267 102.933 83.8333 104.667" stroke="#070600" stroke-width="3" stroke-linecap="round" stroke-linejoin="round"/>
</svg>
