<svg width="17" height="18" viewBox="0 0 17 18" fill="none" xmlns="http://www.w3.org/2000/svg">
<path d="M15.5621 13.5183C15.5621 13.7733 15.5054 14.0353 15.385 14.2903C15.2646 14.5453 15.1087 14.7862 14.9033 15.0128C14.5562 15.3953 14.1737 15.6716 13.7417 15.8487C13.3167 16.0258 12.8562 16.1178 12.3604 16.1178C11.6379 16.1178 10.8658 15.9478 10.0512 15.6008C9.23666 15.2537 8.42207 14.7862 7.61457 14.1983C6.79999 13.6033 6.02791 12.9445 5.29124 12.2149C4.56166 11.4783 3.90291 10.7062 3.31499 9.89867C2.73416 9.09117 2.26666 8.28367 1.92666 7.48326C1.58666 6.67576 1.41666 5.90367 1.41666 5.16701C1.41666 4.68534 1.50166 4.22492 1.67166 3.79992C1.84166 3.36784 2.11082 2.97117 2.48624 2.61701C2.93957 2.17076 3.43541 1.95117 3.95957 1.95117C4.15791 1.95117 4.35624 1.99367 4.53332 2.07867C4.71749 2.16367 4.88041 2.29117 5.00791 2.47534L6.65124 4.79159C6.77874 4.96867 6.87082 5.13159 6.93457 5.28742C6.99832 5.43617 7.03374 5.58492 7.03374 5.71951C7.03374 5.88951 6.98416 6.05951 6.88499 6.22242C6.79291 6.38534 6.65832 6.55534 6.48832 6.72534L5.94999 7.28492C5.87207 7.36284 5.83666 7.45492 5.83666 7.56826C5.83666 7.62492 5.84374 7.67451 5.85791 7.73117C5.87916 7.78784 5.90041 7.83034 5.91457 7.87284C6.04207 8.10659 6.26166 8.41117 6.57332 8.77951C6.89207 9.14784 7.23207 9.52326 7.60041 9.89867C7.98291 10.2741 8.35124 10.6212 8.72666 10.9399C9.09499 11.2516 9.39957 11.4641 9.64041 11.5916C9.67582 11.6058 9.71832 11.627 9.76791 11.6483C9.82457 11.6695 9.88124 11.6766 9.94499 11.6766C10.0654 11.6766 10.1575 11.6341 10.2354 11.5562L10.7737 11.0249C10.9508 10.8478 11.1208 10.7133 11.2837 10.6283C11.4467 10.5291 11.6096 10.4795 11.7867 10.4795C11.9212 10.4795 12.0629 10.5078 12.2187 10.5716C12.3746 10.6353 12.5375 10.7274 12.7146 10.8478L15.0592 12.5124C15.2433 12.6399 15.3708 12.7887 15.4487 12.9658C15.5196 13.1428 15.5621 13.3199 15.5621 13.5183Z" stroke="white" stroke-width="1.5" stroke-miterlimit="10"/>
</svg>
