<svg width="149" height="148" viewBox="0 0 149 148" fill="none" xmlns="http://www.w3.org/2000/svg">
<path d="M95.1738 110.214H94.2642C88.6833 110.075 80.5433 104.217 79.6338 103.538L77.2288 101.75L79.2638 99.6533C79.7725 99.1445 84.3975 94.7508 93.6167 95.8454C104.1 97.0941 104.223 107.192 104.223 107.285V109.458L102.25 109.751C99.9019 110.039 97.5393 110.193 95.1738 110.214ZM81.9617 101.426C84.9525 103.538 90.7646 107.038 94.295 107.13C96.551 107.151 98.8061 107.033 101.048 106.776C100.894 104.747 100.018 102.841 98.5777 101.403C97.1376 99.9661 95.2295 99.0934 93.2004 98.9441C86.8333 98.1733 83.2104 100.44 81.9617 101.426Z" fill="#070600"/>
<path d="M104.254 108.734L102.867 107.408C101.147 105.604 100.21 103.193 100.261 100.702C100.385 97.4179 102.327 94.2421 106.012 91.2821C115.169 83.9129 123.201 83.5738 124.08 83.4967L128.073 83.4042L126.531 86.8729C126.315 87.32 121.397 97.9575 115.277 102.213C112.337 104.208 109.296 106.05 106.166 107.732L104.254 108.734ZM123.14 86.6571C117.529 87.5775 112.274 90.0077 107.939 93.6871C105.01 96.0458 103.468 98.42 103.314 100.748C103.26 102.277 103.776 103.772 104.763 104.941C105.565 104.51 109.866 102.151 113.427 99.6842C117.836 96.6317 121.752 89.4167 123.14 86.6571Z" fill="#070600"/>
<path d="M137.708 141.833H72.9583V89.7558C72.9583 89.3469 73.1208 88.9548 73.4099 88.6657C73.699 88.3765 74.0911 88.2141 74.5 88.2141C74.9089 88.2141 75.301 88.3765 75.5901 88.6657C75.8792 88.9548 76.0417 89.3469 76.0417 89.7558V138.75H134.625V89.7558C134.625 89.3469 134.787 88.9548 135.077 88.6657C135.366 88.3765 135.758 88.2141 136.167 88.2141C136.576 88.2141 136.968 88.3765 137.257 88.6657C137.546 88.9548 137.708 89.3469 137.708 89.7558V141.833Z" fill="#070600"/>
<path d="M70.6767 94.9051C70.3175 94.9071 69.9614 94.839 69.6283 94.7046C69.0715 94.4831 68.595 94.0977 68.2619 93.5994C67.9288 93.1011 67.7548 92.5135 67.7629 91.9142V85.8863L105.333 45.5409L142.95 84.0826V90.8967C142.954 91.4377 142.796 91.9674 142.496 92.4179C142.197 92.8684 141.77 93.2191 141.27 93.4251C140.789 93.6226 140.26 93.6709 139.751 93.5637C139.242 93.4565 138.778 93.1987 138.417 92.8238L105.333 58.9688L72.7733 94.0417C72.5009 94.3206 72.1745 94.541 71.814 94.6894C71.4535 94.8379 71.0665 94.9112 70.6767 94.9051ZM70.8463 87.1042V91.5442L105.333 54.5134L139.867 89.8638V85.3159L105.333 50.0117L70.8463 87.1042Z" fill="#070600"/>
<path d="M78.4467 77.9775C78.0378 77.9775 77.6457 77.8151 77.3565 77.5259C77.0674 77.2368 76.905 76.8447 76.905 76.4358V47.9921H94.1254V61.235C94.1254 61.6439 93.963 62.036 93.6739 62.3251C93.3848 62.6142 92.9926 62.7767 92.5837 62.7767C92.1749 62.7767 91.7827 62.6142 91.4936 62.3251C91.2045 62.036 91.0421 61.6439 91.0421 61.235V51.0754H79.9883V76.4358C79.9883 76.8447 79.8259 77.2368 79.5368 77.5259C79.2477 77.8151 78.8555 77.9775 78.4467 77.9775Z" fill="#070600"/>
<path d="M102.975 106.915C102.512 97.2946 122.554 85.0383 124.835 83.6816L126.377 86.3179C120.596 89.7712 105.688 100.193 106.012 106.776L102.975 106.915Z" fill="#070600"/>
<path d="M101.371 108.919C98.2108 103.723 84.5979 102.983 79.6183 103.122L79.5258 100.039C81.53 100.039 99.3517 99.6688 104.008 107.315L101.371 108.919Z" fill="#070600"/>
<path d="M104.794 126.417H104.624C104.22 126.37 103.851 126.166 103.597 125.848C103.342 125.531 103.224 125.125 103.268 124.721C104.115 117.013 101.094 106.653 101.063 106.545C101.004 106.35 100.983 106.146 101.003 105.944C101.023 105.742 101.083 105.545 101.179 105.366C101.275 105.187 101.405 105.029 101.562 104.9C101.72 104.772 101.901 104.676 102.096 104.618C102.291 104.558 102.496 104.539 102.699 104.56C102.902 104.581 103.099 104.642 103.278 104.739C103.458 104.837 103.616 104.969 103.744 105.128C103.871 105.287 103.966 105.47 104.023 105.666C104.146 106.113 107.26 116.689 106.335 125.06C106.29 125.436 106.108 125.782 105.823 126.032C105.539 126.283 105.173 126.419 104.794 126.417Z" fill="#070600"/>
<path d="M111.192 136.638H99.2746L94.5417 123.333H114.953L111.192 136.638ZM101.433 133.555H108.864L110.883 126.417H98.8738L101.433 133.555Z" fill="#070600"/>
<path d="M93.8942 51.0755H77.1979C76.0735 51.0755 74.9952 50.6288 74.2001 49.8337C73.405 49.0386 72.9583 47.9603 72.9583 46.8359V46.5275C72.9583 45.4031 73.405 44.3248 74.2001 43.5297C74.9952 42.7346 76.0735 42.288 77.1979 42.288H93.8942C95.0186 42.288 96.0969 42.7346 96.892 43.5297C97.6871 44.3248 98.1337 45.4031 98.1337 46.5275V46.8359C98.1337 47.9603 97.6871 49.0386 96.892 49.8337C96.0969 50.6288 95.0186 51.0755 93.8942 51.0755ZM77.1979 45.3713C76.8925 45.3753 76.6007 45.4984 76.3847 45.7144C76.1688 45.9304 76.0457 46.2221 76.0417 46.5275V46.8359C76.0417 47.1425 76.1635 47.4366 76.3803 47.6535C76.5972 47.8703 76.8913 47.9921 77.1979 47.9921H93.8942C94.0466 47.9942 94.1979 47.9657 94.3391 47.9083C94.4803 47.851 94.6086 47.7659 94.7164 47.6581C94.8242 47.5503 94.9092 47.422 94.9666 47.2808C95.024 47.1396 95.0525 46.9883 95.0504 46.8359V46.5275C95.0504 46.2209 94.9286 45.9268 94.7118 45.71C94.4949 45.4931 94.2008 45.3713 93.8942 45.3713H77.1979Z" fill="#070600"/>
<path d="M62.66 99.3604L10.675 98.8516L18.8304 62.345L25.8604 62.4221C26.2693 62.4221 26.6614 62.5845 26.9505 62.8736C27.2397 63.1627 27.4021 63.5548 27.4021 63.9637C27.4021 64.3726 27.2397 64.7647 26.9505 65.0538C26.6614 65.343 26.2693 65.5054 25.8604 65.5054H21.3279L14.5292 95.7991L58.8675 96.2462L52.7008 65.7675H45.7942C45.6157 65.8786 45.4163 65.9521 45.2083 65.9833C44.8036 66.0405 44.3926 65.9346 44.066 65.6888C43.7393 65.4431 43.5236 65.0776 43.4663 64.6729L43.1888 62.6841H45.2083L55.2138 62.7921L62.66 99.3604Z" fill="#070600"/>
<path d="M57.85 108.24H15.5004L11.4767 100.347H61.8892L57.85 108.24ZM17.4583 105.157H56L56.8788 103.43H16.5179L17.4583 105.157Z" fill="#070600"/>
<path d="M39.4425 132.583C39.0336 132.583 38.6415 132.421 38.3524 132.132C38.0633 131.843 37.9008 131.451 37.9008 131.042V108.24H36.3592V131.042C36.3592 131.451 36.1967 131.843 35.9076 132.132C35.6185 132.421 35.2264 132.583 34.8175 132.583C34.4086 132.583 34.0165 132.421 33.7274 132.132C33.4383 131.843 33.2758 131.451 33.2758 131.042V105.157H40.9842V131.042C40.9842 131.451 40.8217 131.843 40.5326 132.132C40.2435 132.421 39.8514 132.583 39.4425 132.583Z" fill="#070600"/>
<path d="M68.5337 141.093H5.68V134.449L34.5092 129.5C34.918 129.433 35.337 129.53 35.6738 129.772C36.0106 130.013 36.2377 130.378 36.3052 130.787C36.3727 131.196 36.2749 131.615 36.0335 131.952C35.7921 132.289 35.4268 132.516 35.0179 132.583L8.80958 137.054V138.01H65.4504V137.054L39.2421 132.583C38.8332 132.516 38.4679 132.289 38.2265 131.952C37.985 131.615 37.8873 131.196 37.9548 130.787C38.0223 130.378 38.2494 130.013 38.5862 129.772C38.923 129.53 39.342 129.433 39.7508 129.5L68.5954 134.418L68.5337 141.093Z" fill="#070600"/>
<path d="M74.5 123.642H47.9062V106.683C47.9062 106.274 48.0687 105.882 48.3578 105.593C48.6469 105.304 49.039 105.142 49.4479 105.142C49.8568 105.142 50.2489 105.304 50.538 105.593C50.8272 105.882 50.9896 106.274 50.9896 106.683V120.558H74.5C74.9089 120.558 75.301 120.721 75.5901 121.01C75.8792 121.299 76.0417 121.691 76.0417 122.1C76.0417 122.509 75.8792 122.901 75.5901 123.19C75.301 123.479 74.9089 123.642 74.5 123.642Z" fill="#070600"/>
<path d="M55.5837 74H18.1675C17.7586 74 17.3665 73.8375 17.0774 73.5484C16.7883 73.2593 16.6258 72.8672 16.6258 72.4583C16.6258 72.0494 16.7883 71.6573 17.0774 71.3682C17.3665 71.079 17.7586 70.9166 18.1675 70.9166H55.5837C55.9926 70.9166 56.3848 71.079 56.6739 71.3682C56.963 71.6573 57.1254 72.0494 57.1254 72.4583C57.1254 72.8672 56.963 73.2593 56.6739 73.5484C56.3848 73.8375 55.9926 74 55.5837 74Z" fill="#070600"/>
<path d="M57.4338 82.3867H16.2867C15.8778 82.3867 15.4857 82.2243 15.1965 81.9351C14.9074 81.646 14.745 81.2539 14.745 80.845C14.745 80.4361 14.9074 80.044 15.1965 79.7549C15.4857 79.4658 15.8778 79.3033 16.2867 79.3033H57.4338C57.8426 79.3033 58.2348 79.4658 58.5239 79.7549C58.813 80.044 58.9754 80.4361 58.9754 80.845C58.9754 81.2539 58.813 81.646 58.5239 81.9351C58.2348 82.2243 57.8426 82.3867 57.4338 82.3867Z" fill="#070600"/>
<path d="M58.9138 90.3263H14.5138C14.1049 90.3263 13.7127 90.1638 13.4236 89.8747C13.1345 89.5856 12.9721 89.1935 12.9721 88.7846C12.9721 88.3757 13.1345 87.9836 13.4236 87.6945C13.7127 87.4053 14.1049 87.2429 14.5138 87.2429H58.9138C59.3226 87.2429 59.7148 87.4053 60.0039 87.6945C60.293 87.9836 60.4554 88.3757 60.4554 88.7846C60.4554 89.1935 60.293 89.5856 60.0039 89.8747C59.7148 90.1638 59.3226 90.3263 58.9138 90.3263Z" fill="#070600"/>
<path d="M36.6829 98.9596C36.274 98.9596 35.8819 98.7971 35.5928 98.508C35.3037 98.2189 35.1413 97.8268 35.1413 97.4179V64.1487C35.1413 63.7398 35.3037 63.3477 35.5928 63.0586C35.8819 62.7695 36.274 62.6071 36.6829 62.6071C37.0918 62.6071 37.4839 62.7695 37.773 63.0586C38.0622 63.3477 38.2246 63.7398 38.2246 64.1487V97.4179C38.2246 97.8268 38.0622 98.2189 37.773 98.508C37.4839 98.7971 37.0918 98.9596 36.6829 98.9596Z" fill="#070600"/>
<path d="M24.6425 98.5433H24.4575C24.2559 98.5204 24.0609 98.4579 23.8835 98.3594C23.7062 98.2609 23.55 98.1283 23.4239 97.9693C23.2979 97.8104 23.2045 97.6281 23.149 97.4329C23.0936 97.2378 23.0772 97.0336 23.1008 96.8321L26.9088 64.1796C26.9589 63.7753 27.167 63.4073 27.4877 63.1559C27.8083 62.9046 28.2154 62.7904 28.62 62.8383C29.0241 62.8848 29.3935 63.0892 29.6476 63.4068C29.9017 63.7245 30.02 64.1297 29.9767 64.5342L26.1688 97.125C26.1379 97.5095 25.964 97.8685 25.6815 98.131C25.3989 98.3936 25.0282 98.5407 24.6425 98.5433Z" fill="#070600"/>
<path d="M48.5537 99.2217C48.1726 99.224 47.8042 99.085 47.5195 98.8316C47.2348 98.5783 47.054 98.2284 47.0121 97.8496L43.3892 64.3646C43.3608 64.1621 43.3726 63.9561 43.4239 63.7582C43.4752 63.5603 43.565 63.3744 43.6881 63.2112C43.8112 63.048 43.9653 62.9107 44.1415 62.807C44.3177 62.7034 44.5125 62.6354 44.715 62.6071C44.9175 62.5787 45.1235 62.5905 45.3214 62.6418C45.5193 62.6931 45.7051 62.7829 45.8683 62.906C46.0315 63.0291 46.1689 63.1832 46.2726 63.3594C46.3762 63.5356 46.4442 63.7305 46.4725 63.9329V64.1642L50.08 97.5104C50.1233 97.9149 50.0051 98.3201 49.7509 98.6378C49.4968 98.9554 49.1275 99.1597 48.7233 99.2062L48.5537 99.2217Z" fill="#070600"/>
<path d="M43.8363 67.6638L43.5742 65.675L25.1667 65.5054L24.7196 65.0584C22.5399 62.8997 21.0539 60.1398 20.4515 57.1318C19.8492 54.1238 20.1579 51.0045 21.3383 48.1729C22.5186 45.3414 24.5168 42.9263 27.0774 41.2368C29.6379 39.5473 32.6443 38.6601 35.7118 38.6887C38.7794 38.7173 41.7687 39.6604 44.2973 41.3974C46.8259 43.1344 48.7787 45.5863 49.9061 48.4393C51.0334 51.2924 51.2839 54.4169 50.6256 57.4132C49.9672 60.4094 48.4299 63.1411 46.2104 65.2588L43.8363 67.6638ZM26.5079 62.4221L44.5454 62.6071C46.2022 60.8669 47.3146 58.6807 47.7459 56.3169C48.1773 53.9532 47.9088 51.515 46.9734 49.3018C46.0381 47.0885 44.4766 45.1967 42.4809 43.8587C40.4852 42.5207 38.1421 41.7948 35.7394 41.7702C33.3368 41.7456 30.9793 42.4232 28.9565 43.72C26.9338 45.0168 25.3339 46.8762 24.3533 49.0698C23.3728 51.2633 23.0543 53.6956 23.4371 56.0676C23.8199 58.4397 24.8872 60.6483 26.5079 62.4221Z" fill="#070600"/>
<path d="M35.6192 35.7205C35.2103 35.7205 34.8182 35.558 34.529 35.2689C34.2399 34.9798 34.0775 34.5877 34.0775 34.1788V29.1684C34.0775 28.7595 34.2399 28.3674 34.529 28.0783C34.8182 27.7891 35.2103 27.6267 35.6192 27.6267C36.028 27.6267 36.4202 27.7891 36.7093 28.0783C36.9984 28.3674 37.1608 28.7595 37.1608 29.1684V34.1788C37.1608 34.5877 36.9984 34.9798 36.7093 35.2689C36.4202 35.558 36.028 35.7205 35.6192 35.7205Z" fill="#070600"/>
<path d="M23.0083 40.7309C22.8044 40.73 22.6026 40.6887 22.4147 40.6093C22.2268 40.5299 22.0565 40.414 21.9138 40.2684L18.3679 36.7225C18.0808 36.4337 17.9196 36.043 17.9196 35.6357C17.9196 35.2284 18.0808 34.8376 18.3679 34.5488C18.5112 34.4043 18.6817 34.2896 18.8696 34.2113C19.0575 34.1331 19.259 34.0928 19.4625 34.0928C19.666 34.0928 19.8675 34.1331 20.0554 34.2113C20.2433 34.2896 20.4138 34.4043 20.5571 34.5488L24.1029 38.0946C24.3203 38.3103 24.4686 38.5858 24.5288 38.886C24.5891 39.1862 24.5585 39.4976 24.4411 39.7804C24.3237 40.0632 24.1247 40.3047 23.8695 40.4739C23.6144 40.6432 23.3145 40.7327 23.0083 40.7309Z" fill="#070600"/>
<path d="M48.0604 41.0855C47.656 41.0838 47.2684 40.9232 46.9813 40.6384C46.8368 40.4951 46.7221 40.3245 46.6438 40.1367C46.5655 39.9488 46.5252 39.7473 46.5252 39.5438C46.5252 39.3403 46.5655 39.1388 46.6438 38.9509C46.7221 38.763 46.8368 38.5925 46.9813 38.4492L50.5117 34.9188C50.6544 34.775 50.824 34.6608 51.0109 34.5826C51.1978 34.5045 51.3982 34.4639 51.6008 34.4631C51.8034 34.4624 52.0041 34.5016 52.1915 34.5785C52.3789 34.6553 52.5494 34.7684 52.6931 34.9111C52.8369 35.0538 52.9511 35.2235 53.0293 35.4103C53.1075 35.5972 53.1481 35.7977 53.1488 36.0002C53.1495 36.2028 53.1103 36.4035 53.0334 36.5909C52.9566 36.7784 52.8436 36.9488 52.7008 37.0925L49.155 40.6384C49.0109 40.7813 48.8401 40.8943 48.6523 40.971C48.4644 41.0477 48.2633 41.0866 48.0604 41.0855Z" fill="#070600"/>
<path d="M16.1017 53.1721H11.0913C10.6824 53.1721 10.2902 53.0096 10.0011 52.7205C9.71201 52.4314 9.54958 52.0393 9.54958 51.6304C9.54958 51.2215 9.71201 50.8294 10.0011 50.5403C10.2902 50.2512 10.6824 50.0887 11.0913 50.0887H16.1017C16.5105 50.0887 16.9027 50.2512 17.1918 50.5403C17.4809 50.8294 17.6433 51.2215 17.6433 51.6304C17.6433 52.0393 17.4809 52.4314 17.1918 52.7205C16.9027 53.0096 16.5105 53.1721 16.1017 53.1721Z" fill="#070600"/>
<path d="M59.6229 53.6962H54.6125C54.2036 53.6962 53.8115 53.5338 53.5224 53.2447C53.2333 52.9556 53.0708 52.5635 53.0708 52.1546C53.0708 51.7457 53.2333 51.3536 53.5224 51.0645C53.8115 50.7753 54.2036 50.6129 54.6125 50.6129H59.6229C60.0318 50.6129 60.4239 50.7753 60.713 51.0645C61.0022 51.3536 61.1646 51.7457 61.1646 52.1546C61.1646 52.5635 61.0022 52.9556 60.713 53.2447C60.4239 53.5338 60.0318 53.6962 59.6229 53.6962Z" fill="#070600"/>
</svg>
