<svg width="16" height="19" viewBox="0 0 16 19" fill="none" xmlns="http://www.w3.org/2000/svg">
<path d="M2.49998 1.25H13.5C14.4166 1.25 15.1666 2 15.1666 2.91667V4.75C15.1666 5.41667 14.75 6.25 14.3333 6.66667L10.75 9.83333C10.25 10.25 9.91665 11.0833 9.91665 11.75V15.3333C9.91665 15.8333 9.58331 16.5 9.16665 16.75L7.99998 17.5C6.91665 18.1667 5.41665 17.4167 5.41665 16.0833V11.6667C5.41665 11.0833 5.08331 10.3333 4.74998 9.91667L1.58331 6.58333C1.16665 6.16667 0.833313 5.41667 0.833313 4.91667V3C0.833313 2 1.58331 1.25 2.49998 1.25Z" stroke="#667085" stroke-width="1.5" stroke-miterlimit="10" stroke-linecap="round" stroke-linejoin="round"/>
</svg>
