<svg width="26" height="30" viewBox="0 0 26 30" fill="none" xmlns="http://www.w3.org/2000/svg">
<path d="M4.32558 5.75H19.6744C20.9535 5.75 22 6.79651 22 8.07558V10.6337C22 11.564 21.4186 12.7267 20.8372 13.3081L15.8372 17.7267C15.1395 18.3081 14.6744 19.4709 14.6744 20.4012V25.4012C14.6744 26.0988 14.2093 27.0291 13.6279 27.3779L12 28.4244C10.4884 29.3546 8.39535 28.3081 8.39535 26.4477V20.2849C8.39535 19.4709 7.93023 18.4244 7.46512 17.843L3.04651 13.1919C2.46512 12.6105 2 11.564 2 10.8663V8.19186C2 6.79651 3.04651 5.75 4.32558 5.75Z" stroke="#667085" stroke-width="1.5" stroke-miterlimit="10" stroke-linecap="round" stroke-linejoin="round"/>
<path d="M1 25L25 1" stroke="#667085" stroke-width="1.5" stroke-linecap="round" stroke-linejoin="round"/>
</svg>
