<svg width="149" height="160" viewBox="0 0 149 160" fill="none" xmlns="http://www.w3.org/2000/svg">
<path d="M112.023 37.1483C115.304 34.0225 119.696 34.0225 122.977 37.1483" stroke="#070600" stroke-width="3" stroke-linecap="round" stroke-linejoin="round"/>
<path d="M128.453 31.6718C127.058 30.3026 125.508 29.2435 123.907 28.4685C119.799 26.5051 115.201 26.5051 111.068 28.4685C109.466 29.2435 107.942 30.3026 106.521 31.6718" stroke="#070600" stroke-width="3" stroke-linecap="round" stroke-linejoin="round"/>
<path d="M117.488 43.9166H117.512" stroke="#070600" stroke-width="3" stroke-linecap="round" stroke-linejoin="round"/>
<rect x="88" y="1.5" width="59" height="59" rx="29.5" stroke="#070600" stroke-width="3"/>
<path d="M10.5 150H110.5" stroke="#070600" stroke-width="3" stroke-miterlimit="10" stroke-linecap="round" stroke-linejoin="round"/>
<path d="M15.25 150L15.5 89.8499C15.5 86.7999 16.95 83.9002 19.35 82.0002L54.35 54.7501C57.95 51.9501 63 51.9501 66.65 54.7501L101.65 81.9502C104.1 83.8502 105.5 86.7499 105.5 89.8499V150" stroke="#070600" stroke-width="3" stroke-miterlimit="10" stroke-linejoin="round"/>
<path d="M78 95H43C38.85 95 35.5 98.35 35.5 102.5V150H85.5V102.5C85.5 98.35 82.15 95 78 95Z" stroke="#070600" stroke-width="3" stroke-miterlimit="10" stroke-linecap="round" stroke-linejoin="round"/>
</svg>
