<svg width="80" height="76" viewBox="0 0 80 76" fill="none" xmlns="http://www.w3.org/2000/svg">
<path d="M17.7481 16.2505C16.6118 13.521 14.0697 11.6349 11.1176 11.342V22.1899L14.5383 19.1089L17.7481 16.2505Z" fill="white"/>
<path d="M18.3924 23.522V20.7456L14.5851 24.2015L11.1176 27.3293V29.684L14.5851 26.7553L18.3924 23.522Z" fill="white"/>
<path d="M18.3924 35.6692L14.5851 39.0196L11.1176 42.0655V49.3286H18.3924V35.6692Z" fill="white"/>
<path d="M7.31001 41.987L3.8073 38.824L0 35.3682V49.3322H7.31001V41.987Z" fill="white"/>
<path d="M11.1172 49.3323H7.30988V67.4199H11.1172V49.3323Z" fill="white"/>
<path d="M7.31015 22.0376V11.342C4.46346 11.6349 1.97993 13.3921 0.761597 15.9811L3.84258 18.8395L7.31015 22.0376Z" fill="white"/>
<path d="M7.31001 29.5819V27.2155L3.8073 23.9822L0 20.4443V23.1856L3.8073 26.536L7.31001 29.5819Z" fill="white"/>
<path d="M7.31001 36.8421V34.5928L3.8073 31.547L0 28.2434V30.2232L3.8073 33.6908L7.31001 36.8421Z" fill="white"/>
<path d="M18.3924 30.5972V28.5002L14.5851 31.7452L11.1176 34.7091V36.9935L14.5851 33.9476L18.3924 30.5972Z" fill="white"/>
<path d="M79.3552 16.2505C78.2189 13.521 75.6768 11.6349 72.7364 11.342V22.1899L76.1571 19.1089L79.3552 16.2505Z" fill="white"/>
<path d="M76.1927 24.2015L72.7252 27.3293V29.684L76.1927 26.7553L80 23.522V20.7456L76.1927 24.2015Z" fill="white"/>
<path d="M72.7252 42.0655V49.3286H80V35.6692L76.1927 39.0196L72.7252 42.0655Z" fill="white"/>
<path d="M68.9177 67.4198H72.725V49.3322H68.9177V41.987L65.415 38.824L61.6077 35.3682V49.3322H68.9177V67.4198Z" fill="white"/>
<path d="M68.9177 22.0376V11.342C66.071 11.6349 63.5875 13.3921 62.3691 15.9811L65.4501 18.8395L68.9177 22.0376Z" fill="white"/>
<path d="M68.9177 29.5819V27.2155L65.415 23.9822L61.6077 20.4443V23.1856L65.415 26.536L68.9177 29.5819Z" fill="white"/>
<path d="M68.9177 36.8421V34.5928L65.415 31.547L61.6077 28.2434V30.2232L65.415 33.6908L68.9177 36.8421Z" fill="white"/>
<path d="M72.7252 34.7091V36.9935L76.1927 33.9476L80 30.5972V28.5002L76.1927 31.7452L72.7252 34.7091Z" fill="white"/>
<path d="M50.8537 6.22055C49.4128 2.76469 46.1912 0.374873 42.4659 0V13.7297L46.8004 9.8287L50.8537 6.22055Z" fill="white"/>
<path d="M51.6737 15.4141V11.8997L46.859 16.281L42.4659 20.2289V23.2161L46.859 19.5143L51.6737 15.4141Z" fill="white"/>
<path d="M51.6737 30.7849L46.859 35.0257L42.4659 38.8915V48.0876H51.6737V30.7849Z" fill="white"/>
<path d="M37.6518 38.7872L33.2119 34.7925L28.3971 30.4111V48.0887H37.6518V38.7872Z" fill="white"/>
<path d="M42.4543 48.0798H37.6512V67.4209H42.4543V48.0798Z" fill="white"/>
<path d="M37.6508 13.5423V0C34.0427 0.363158 30.9031 2.60068 29.3568 5.88082L33.2578 9.50069L37.6508 13.5423Z" fill="white"/>
<path d="M37.6518 23.0803V20.093L33.2119 16.0046L28.3971 11.5178V14.9854L33.2119 19.2261L37.6518 23.0803Z" fill="white"/>
<path d="M37.6518 32.2844V29.4377L33.2119 25.5835L28.3971 21.3896V23.8966L33.2119 28.2897L37.6518 32.2844Z" fill="white"/>
<path d="M51.6737 24.3805V21.7329L46.859 25.8331L42.4659 29.5818V32.4754L46.859 28.6212L51.6737 24.3805Z" fill="white"/>
<path d="M78.1022 71.2271H1.90942V75.0344H78.1022V71.2271Z" fill="white"/>
</svg>
