<svg width="190" height="63" viewBox="0 0 190 63" fill="none" xmlns="http://www.w3.org/2000/svg">
<g clip-path="url(#clip0_9_330)">
<path d="M12.3094 16.2694C11.5213 14.3762 9.75813 13.0681 7.71063 12.865V20.3887L10.0831 18.2519L12.3094 16.2694Z" fill="#15B86C"/>
<path d="M12.7563 21.315V19.3894L10.1156 21.7863L7.71063 23.9557V25.5888L10.1156 23.5575L12.7563 21.315Z" fill="#15B86C"/>
<path d="M12.7563 29.7406L10.1156 32.0644L7.71063 34.1769V39.2144H12.7563V29.7406Z" fill="#15B86C"/>
<path d="M5.07 34.12L2.64062 31.9263L0 29.5294V39.2144H5.07V34.12Z" fill="#15B86C"/>
<path d="M7.71063 39.2144H5.07001V51.7594H7.71063V39.2144Z" fill="#15B86C"/>
<path d="M5.07001 20.2831V12.865C3.09564 13.0681 1.37314 14.2869 0.528137 16.0825L2.66501 18.065L5.07001 20.2831Z" fill="#15B86C"/>
<path d="M5.07 25.5156V23.8744L2.64062 21.6319L0 19.1781V21.0794L2.64062 23.4031L5.07 25.5156Z" fill="#15B86C"/>
<path d="M5.07 30.5531V28.9931L2.64062 26.8806L0 24.5894V25.9625L2.64062 28.3675L5.07 30.5531Z" fill="#15B86C"/>
<path d="M12.7563 26.2224V24.7681L10.1156 27.0187L7.71063 29.0743V30.6587L10.1156 28.5462L12.7563 26.2224Z" fill="#15B86C"/>
<path d="M55.0387 16.2694C54.2506 14.3762 52.4875 13.0681 50.4481 12.865V20.3887L52.8206 18.2519L55.0387 16.2694Z" fill="#15B86C"/>
<path d="M52.845 21.7863L50.44 23.9557V25.5888L52.845 23.5575L55.4856 21.315V19.3894L52.845 21.7863Z" fill="#15B86C"/>
<path d="M50.44 34.1769V39.2144H55.4856V29.7406L52.845 32.0644L50.44 34.1769Z" fill="#15B86C"/>
<path d="M47.7994 51.7594H50.44V39.2144H47.7994V34.12L45.37 31.9263L42.7294 29.5294V39.2144H47.7994V51.7594Z" fill="#15B86C"/>
<path d="M47.7994 20.2831V12.865C45.825 13.0681 44.1025 14.2869 43.2575 16.0825L45.3944 18.065L47.7994 20.2831Z" fill="#15B86C"/>
<path d="M47.7994 25.5156V23.8744L45.37 21.6319L42.7294 19.1781V21.0794L45.37 23.4031L47.7994 25.5156Z" fill="#15B86C"/>
<path d="M47.7994 30.5531V28.9931L45.37 26.8806L42.7294 24.5894V25.9625L45.37 28.3675L47.7994 30.5531Z" fill="#15B86C"/>
<path d="M50.44 29.0743V30.6587L52.845 28.5462L55.4856 26.2224V24.7681L52.845 27.0187L50.44 29.0743Z" fill="#15B86C"/>
<path d="M35.2706 9.31437C34.2712 6.9175 32.0369 5.26 29.4531 5V14.5225L32.4594 11.8169L35.2706 9.31437Z" fill="#15B86C"/>
<path d="M35.8394 15.6925V13.255L32.5 16.2938L29.4531 19.0319V21.1038L32.5 18.5363L35.8394 15.6925Z" fill="#15B86C"/>
<path d="M35.8394 26.3525L32.5 29.2938L29.4531 31.975V38.3532H35.8394V26.3525Z" fill="#15B86C"/>
<path d="M26.1138 31.9019L23.0344 29.1313L19.695 26.0925V38.3532H26.1138V31.9019Z" fill="#15B86C"/>
<path d="M29.445 38.345H26.1138V51.7593H29.445V38.345Z" fill="#15B86C"/>
<path d="M26.1138 14.3925V5C23.6113 5.25187 21.4338 6.80375 20.3613 9.07875L23.0669 11.5894L26.1138 14.3925Z" fill="#15B86C"/>
<path d="M26.1138 21.0062V18.9343L23.0344 16.0987L19.695 12.9868V15.3918L23.0344 18.3331L26.1138 21.0062Z" fill="#15B86C"/>
<path d="M26.1138 27.3926V25.4182L23.0344 22.7451L19.695 19.8363V21.5751L23.0344 24.6219L26.1138 27.3926Z" fill="#15B86C"/>
<path d="M35.8394 21.9081V20.0719L32.5 22.9156L29.4531 25.5156V27.5225L32.5 24.8494L35.8394 21.9081Z" fill="#15B86C"/>
<path d="M54.1694 54.4H1.3244V57.0406H54.1694V54.4Z" fill="#15B86C"/>
<path d="M77.7756 25.2383C78.3216 25.2383 78.7956 25.1903 79.1976 25.0943C79.6056 24.9923 79.9926 24.8543 80.3586 24.6803V22.3133H78.7296C78.5736 22.3133 78.4506 22.2713 78.3606 22.1873C78.2706 22.0973 78.2256 21.9893 78.2256 21.8633V20.4953H82.5546V25.7603C82.2246 26.0003 81.8796 26.2103 81.5196 26.3903C81.1656 26.5643 80.7846 26.7083 80.3766 26.8223C79.9746 26.9363 79.5426 27.0203 79.0806 27.0743C78.6186 27.1343 78.1206 27.1643 77.5866 27.1643C76.6386 27.1643 75.7656 26.9993 74.9676 26.6693C74.1696 26.3393 73.4796 25.8803 72.8976 25.2923C72.3156 24.7043 71.8596 24.0023 71.5296 23.1863C71.2056 22.3703 71.0436 21.4793 71.0436 20.5133C71.0436 19.5353 71.2026 18.6383 71.5206 17.8223C71.8386 17.0063 72.2886 16.3043 72.8706 15.7163C73.4586 15.1283 74.1696 14.6723 75.0036 14.3483C75.8376 14.0243 76.7736 13.8623 77.8116 13.8623C78.8736 13.8623 79.7916 14.0213 80.5656 14.3393C81.3456 14.6513 82.0056 15.0593 82.5456 15.5633L81.8436 16.6613C81.7056 16.8833 81.5226 16.9943 81.2946 16.9943C81.1506 16.9943 81.0036 16.9463 80.8536 16.8503C80.6616 16.7363 80.4636 16.6223 80.2596 16.5083C80.0616 16.3943 79.8396 16.2953 79.5936 16.2113C79.3536 16.1273 79.0806 16.0583 78.7746 16.0043C78.4746 15.9503 78.1266 15.9233 77.7306 15.9233C77.0886 15.9233 76.5066 16.0313 75.9846 16.2473C75.4686 16.4633 75.0276 16.7723 74.6616 17.1743C74.2956 17.5763 74.0136 18.0593 73.8156 18.6233C73.6176 19.1873 73.5186 19.8173 73.5186 20.5133C73.5186 21.2633 73.6236 21.9323 73.8336 22.5203C74.0436 23.1023 74.3376 23.5943 74.7156 23.9963C75.0936 24.3983 75.5436 24.7073 76.0656 24.9233C76.5876 25.1333 77.1576 25.2383 77.7756 25.2383ZM96.2464 27.0203H94.3744C94.1644 27.0203 93.9904 26.9693 93.8524 26.8673C93.7204 26.7593 93.6244 26.6273 93.5644 26.4713L92.5924 23.8163H87.2014L86.2294 26.4713C86.1814 26.6093 86.0854 26.7353 85.9414 26.8493C85.8034 26.9633 85.6324 27.0203 85.4284 27.0203H83.5474L88.6594 14.0063H91.1344L96.2464 27.0203ZM87.8224 22.1063H91.9714L90.3874 17.7773C90.3154 17.5853 90.2344 17.3603 90.1444 17.1023C90.0604 16.8383 89.9764 16.5533 89.8924 16.2473C89.8084 16.5533 89.7244 16.8383 89.6404 17.1023C89.5624 17.3663 89.4844 17.5973 89.4064 17.7953L87.8224 22.1063ZM100.089 21.9353V27.0203H97.6677V14.0063H101.637C102.525 14.0063 103.284 14.0993 103.914 14.2853C104.55 14.4653 105.069 14.7203 105.471 15.0503C105.879 15.3803 106.176 15.7763 106.362 16.2383C106.554 16.6943 106.65 17.1983 106.65 17.7503C106.65 18.1883 106.584 18.6023 106.452 18.9923C106.326 19.3823 106.14 19.7363 105.894 20.0543C105.654 20.3723 105.354 20.6513 104.994 20.8913C104.64 21.1313 104.235 21.3233 103.779 21.4673C104.085 21.6413 104.349 21.8903 104.571 22.2143L107.829 27.0203H105.651C105.441 27.0203 105.261 26.9783 105.111 26.8943C104.967 26.8103 104.844 26.6903 104.742 26.5343L102.006 22.3673C101.904 22.2113 101.79 22.1003 101.664 22.0343C101.544 21.9683 101.364 21.9353 101.124 21.9353H100.089ZM100.089 20.1983H101.601C102.057 20.1983 102.453 20.1413 102.789 20.0273C103.131 19.9133 103.41 19.7573 103.626 19.5593C103.848 19.3553 104.013 19.1153 104.121 18.8393C104.229 18.5633 104.283 18.2603 104.283 17.9303C104.283 17.2703 104.064 16.7633 103.626 16.4093C103.194 16.0553 102.531 15.8783 101.637 15.8783H100.089V20.1983ZM120.938 20.5133C120.938 21.4673 120.779 22.3433 120.461 23.1413C120.143 23.9393 119.696 24.6263 119.12 25.2023C118.544 25.7783 117.851 26.2253 117.041 26.5433C116.231 26.8613 115.334 27.0203 114.35 27.0203H109.382V14.0063H114.35C115.334 14.0063 116.231 14.1683 117.041 14.4923C117.851 14.8103 118.544 15.2573 119.12 15.8333C119.696 16.4033 120.143 17.0873 120.461 17.8853C120.779 18.6833 120.938 19.5593 120.938 20.5133ZM118.463 20.5133C118.463 19.7993 118.367 19.1603 118.175 18.5963C117.983 18.0263 117.71 17.5463 117.356 17.1563C117.002 16.7603 116.57 16.4573 116.06 16.2473C115.556 16.0373 114.986 15.9323 114.35 15.9323H111.821V25.0943H114.35C114.986 25.0943 115.556 24.9893 116.06 24.7793C116.57 24.5693 117.002 24.2693 117.356 23.8793C117.71 23.4833 117.983 23.0033 118.175 22.4393C118.367 21.8693 118.463 21.2273 118.463 20.5133ZM131.037 14.0063V15.9323H125.268V19.5413H129.813V21.4043H125.268V25.0853H131.037V27.0203H122.829V14.0063H131.037ZM134.399 14.0063C134.507 14.0063 134.597 14.0123 134.669 14.0243C134.741 14.0303 134.804 14.0483 134.858 14.0783C134.918 14.1023 134.975 14.1413 135.029 14.1953C135.083 14.2433 135.143 14.3093 135.209 14.3933L142.04 23.0963C142.016 22.8863 141.998 22.6823 141.986 22.4843C141.98 22.2803 141.977 22.0913 141.977 21.9173V14.0063H144.11V27.0203H142.859C142.667 27.0203 142.508 26.9903 142.382 26.9303C142.256 26.8703 142.133 26.7623 142.013 26.6063L135.209 17.9393C135.227 18.1313 135.239 18.3233 135.245 18.5153C135.257 18.7013 135.263 18.8723 135.263 19.0283V27.0203H133.13V14.0063H134.399ZM159.162 23.9513C159.294 23.9513 159.408 24.0023 159.504 24.1043L160.458 25.1393C159.93 25.7933 159.279 26.2943 158.505 26.6423C157.737 26.9903 156.813 27.1643 155.733 27.1643C154.767 27.1643 153.897 26.9993 153.123 26.6693C152.355 26.3393 151.698 25.8803 151.152 25.2923C150.606 24.7043 150.186 24.0023 149.892 23.1863C149.604 22.3703 149.46 21.4793 149.46 20.5133C149.46 19.5353 149.622 18.6413 149.946 17.8313C150.27 17.0153 150.726 16.3133 151.314 15.7253C151.902 15.1373 152.604 14.6813 153.42 14.3573C154.242 14.0273 155.148 13.8623 156.138 13.8623C157.104 13.8623 157.947 14.0183 158.667 14.3303C159.393 14.6363 160.014 15.0443 160.53 15.5543L159.72 16.6793C159.672 16.7513 159.609 16.8143 159.531 16.8683C159.459 16.9223 159.357 16.9493 159.225 16.9493C159.087 16.9493 158.946 16.8953 158.802 16.7873C158.658 16.6793 158.475 16.5623 158.253 16.4363C158.031 16.3103 157.749 16.1933 157.407 16.0853C157.071 15.9773 156.642 15.9233 156.12 15.9233C155.508 15.9233 154.944 16.0313 154.428 16.2473C153.918 16.4573 153.477 16.7603 153.105 17.1563C152.739 17.5523 152.451 18.0353 152.241 18.6053C152.037 19.1693 151.935 19.8053 151.935 20.5133C151.935 21.2453 152.037 21.8963 152.241 22.4663C152.451 23.0363 152.733 23.5163 153.087 23.9063C153.441 24.2963 153.858 24.5963 154.338 24.8063C154.818 25.0103 155.334 25.1123 155.886 25.1123C156.216 25.1123 156.513 25.0943 156.777 25.0583C157.047 25.0223 157.293 24.9653 157.515 24.8873C157.743 24.8093 157.956 24.7103 158.154 24.5903C158.358 24.4643 158.559 24.3113 158.757 24.1313C158.817 24.0773 158.88 24.0353 158.946 24.0053C159.012 23.9693 159.084 23.9513 159.162 23.9513ZM165.019 27.0203H162.589V14.0063H165.019V27.0203ZM177.123 14.0063V15.9953H173.208V27.0203H170.787V15.9953H166.854V14.0063H177.123ZM184.444 21.9623V27.0203H182.023V21.9623L177.28 14.0063H179.413C179.623 14.0063 179.788 14.0573 179.908 14.1593C180.034 14.2613 180.139 14.3903 180.223 14.5463L182.608 18.8933C182.746 19.1513 182.866 19.3973 182.968 19.6313C183.07 19.8593 183.163 20.0843 183.247 20.3063C183.325 20.0783 183.412 19.8503 183.508 19.6223C183.61 19.3883 183.73 19.1453 183.868 18.8933L186.235 14.5463C186.301 14.4143 186.4 14.2913 186.532 14.1773C186.664 14.0633 186.832 14.0063 187.036 14.0063H189.178L184.444 21.9623ZM74.3016 43.9353V49.0203H71.8806V36.0063H75.8496C76.7376 36.0063 77.4966 36.0993 78.1266 36.2853C78.7626 36.4653 79.2816 36.7203 79.6836 37.0503C80.0916 37.3803 80.3886 37.7763 80.5746 38.2383C80.7666 38.6943 80.8626 39.1983 80.8626 39.7503C80.8626 40.1883 80.7966 40.6023 80.6646 40.9923C80.5386 41.3823 80.3526 41.7363 80.1066 42.0543C79.8666 42.3723 79.5666 42.6513 79.2066 42.8913C78.8526 43.1313 78.4476 43.3233 77.9916 43.4673C78.2976 43.6413 78.5616 43.8903 78.7836 44.2143L82.0416 49.0203H79.8636C79.6536 49.0203 79.4736 48.9783 79.3236 48.8943C79.1796 48.8103 79.0566 48.6903 78.9546 48.5343L76.2186 44.3673C76.1166 44.2113 76.0026 44.1003 75.8766 44.0343C75.7566 43.9683 75.5766 43.9353 75.3366 43.9353H74.3016ZM74.3016 42.1983H75.8136C76.2696 42.1983 76.6656 42.1413 77.0016 42.0273C77.3436 41.9133 77.6226 41.7573 77.8386 41.5593C78.0606 41.3553 78.2256 41.1153 78.3336 40.8393C78.4416 40.5633 78.4956 40.2603 78.4956 39.9303C78.4956 39.2703 78.2766 38.7633 77.8386 38.4093C77.4066 38.0553 76.7436 37.8783 75.8496 37.8783H74.3016V42.1983ZM91.8025 36.0063V37.9323H86.0335V41.5413H90.5785V43.4043H86.0335V47.0853H91.8025V49.0203H83.5945V36.0063H91.8025ZM105.334 49.0203H103.462C103.252 49.0203 103.078 48.9693 102.94 48.8673C102.808 48.7593 102.712 48.6273 102.652 48.4713L101.68 45.8163H96.2893L95.3173 48.4713C95.2693 48.6093 95.1733 48.7353 95.0293 48.8493C94.8913 48.9633 94.7203 49.0203 94.5163 49.0203H92.6353L97.7473 36.0063H100.222L105.334 49.0203ZM96.9103 44.1063H101.059L99.4753 39.7773C99.4033 39.5853 99.3223 39.3603 99.2323 39.1023C99.1483 38.8383 99.0643 38.5533 98.9803 38.2473C98.8963 38.5533 98.8123 38.8383 98.7283 39.1023C98.6503 39.3663 98.5723 39.5973 98.4943 39.7953L96.9103 44.1063ZM109.096 47.0223H114.307V49.0203H106.675V36.0063H109.096V47.0223ZM123.562 36.0063V37.9953H119.647V49.0203H117.226V37.9953H113.293V36.0063H123.562ZM136.876 42.5133C136.876 43.4673 136.717 44.3523 136.399 45.1683C136.081 45.9783 135.634 46.6803 135.058 47.2743C134.482 47.8683 133.789 48.3333 132.979 48.6693C132.169 48.9993 131.272 49.1643 130.288 49.1643C129.304 49.1643 128.404 48.9993 127.588 48.6693C126.778 48.3333 126.082 47.8683 125.5 47.2743C124.924 46.6803 124.477 45.9783 124.159 45.1683C123.841 44.3523 123.682 43.4673 123.682 42.5133C123.682 41.5593 123.841 40.6773 124.159 39.8673C124.477 39.0513 124.924 38.3463 125.5 37.7523C126.082 37.1583 126.778 36.6963 127.588 36.3663C128.404 36.0303 129.304 35.8623 130.288 35.8623C131.272 35.8623 132.169 36.0303 132.979 36.3663C133.789 36.7023 134.482 37.1673 135.058 37.7613C135.634 38.3493 136.081 39.0513 136.399 39.8673C136.717 40.6773 136.876 41.5593 136.876 42.5133ZM134.392 42.5133C134.392 41.7993 134.296 41.1603 134.104 40.5963C133.918 40.0263 133.648 39.5433 133.294 39.1473C132.94 38.7513 132.508 38.4483 131.998 38.2383C131.494 38.0283 130.924 37.9233 130.288 37.9233C129.652 37.9233 129.079 38.0283 128.569 38.2383C128.059 38.4483 127.624 38.7513 127.264 39.1473C126.91 39.5433 126.637 40.0263 126.445 40.5963C126.253 41.1603 126.157 41.7993 126.157 42.5133C126.157 43.2273 126.253 43.8693 126.445 44.4393C126.637 45.0033 126.91 45.4833 127.264 45.8793C127.624 46.2693 128.059 46.5693 128.569 46.7793C129.079 46.9893 129.652 47.0943 130.288 47.0943C130.924 47.0943 131.494 46.9893 131.998 46.7793C132.508 46.5693 132.94 46.2693 133.294 45.8793C133.648 45.4833 133.918 45.0033 134.104 44.4393C134.296 43.8693 134.392 43.2273 134.392 42.5133ZM141.292 43.9353V49.0203H138.871V36.0063H142.84C143.728 36.0063 144.487 36.0993 145.117 36.2853C145.753 36.4653 146.272 36.7203 146.674 37.0503C147.082 37.3803 147.379 37.7763 147.565 38.2383C147.757 38.6943 147.853 39.1983 147.853 39.7503C147.853 40.1883 147.787 40.6023 147.655 40.9923C147.529 41.3823 147.343 41.7363 147.097 42.0543C146.857 42.3723 146.557 42.6513 146.197 42.8913C145.843 43.1313 145.438 43.3233 144.982 43.4673C145.288 43.6413 145.552 43.8903 145.774 44.2143L149.032 49.0203H146.854C146.644 49.0203 146.464 48.9783 146.314 48.8943C146.17 48.8103 146.047 48.6903 145.945 48.5343L143.209 44.3673C143.107 44.2113 142.993 44.1003 142.867 44.0343C142.747 43.9683 142.567 43.9353 142.327 43.9353H141.292ZM141.292 42.1983H142.804C143.26 42.1983 143.656 42.1413 143.992 42.0273C144.334 41.9133 144.613 41.7573 144.829 41.5593C145.051 41.3553 145.216 41.1153 145.324 40.8393C145.432 40.5633 145.486 40.2603 145.486 39.9303C145.486 39.2703 145.267 38.7633 144.829 38.4093C144.397 38.0553 143.734 37.8783 142.84 37.8783H141.292V42.1983ZM157.56 38.3733C157.494 38.5053 157.416 38.5983 157.326 38.6523C157.242 38.7063 157.14 38.7333 157.02 38.7333C156.9 38.7333 156.765 38.6883 156.615 38.5983C156.465 38.5023 156.288 38.3973 156.084 38.2833C155.88 38.1693 155.64 38.0673 155.364 37.9773C155.094 37.8813 154.773 37.8333 154.401 37.8333C154.065 37.8333 153.771 37.8753 153.519 37.9593C153.273 38.0373 153.063 38.1483 152.889 38.2923C152.721 38.4363 152.595 38.6103 152.511 38.8143C152.427 39.0123 152.385 39.2313 152.385 39.4713C152.385 39.7773 152.469 40.0323 152.637 40.2363C152.811 40.4403 153.039 40.6143 153.321 40.7583C153.603 40.9023 153.924 41.0313 154.284 41.1453C154.644 41.2593 155.01 41.3823 155.382 41.5143C155.76 41.6403 156.129 41.7903 156.489 41.9643C156.849 42.1323 157.17 42.3483 157.452 42.6123C157.734 42.8703 157.959 43.1883 158.127 43.5663C158.301 43.9443 158.388 44.4033 158.388 44.9433C158.388 45.5313 158.286 46.0833 158.082 46.5993C157.884 47.1093 157.59 47.5563 157.2 47.9403C156.816 48.3183 156.345 48.6183 155.787 48.8403C155.229 49.0563 154.59 49.1643 153.87 49.1643C153.456 49.1643 153.048 49.1223 152.646 49.0383C152.244 48.9603 151.857 48.8463 151.485 48.6963C151.119 48.5463 150.774 48.3663 150.45 48.1563C150.132 47.9463 149.847 47.7123 149.595 47.4543L150.297 46.2933C150.363 46.2093 150.441 46.1403 150.531 46.0863C150.627 46.0263 150.732 45.9963 150.846 45.9963C150.996 45.9963 151.158 46.0593 151.332 46.1853C151.506 46.3053 151.71 46.4403 151.944 46.5903C152.184 46.7403 152.463 46.8783 152.781 47.0043C153.105 47.1243 153.492 47.1843 153.942 47.1843C154.632 47.1843 155.166 47.0223 155.544 46.6983C155.922 46.3683 156.111 45.8973 156.111 45.2853C156.111 44.9433 156.024 44.6643 155.85 44.4483C155.682 44.2323 155.457 44.0523 155.175 43.9083C154.893 43.7583 154.572 43.6323 154.212 43.5303C153.852 43.4283 153.486 43.3173 153.114 43.1973C152.742 43.0773 152.376 42.9333 152.016 42.7653C151.656 42.5973 151.335 42.3783 151.053 42.1083C150.771 41.8383 150.543 41.5023 150.369 41.1003C150.201 40.6923 150.117 40.1913 150.117 39.5973C150.117 39.1233 150.21 38.6613 150.396 38.2113C150.588 37.7613 150.864 37.3623 151.224 37.0143C151.59 36.6663 152.037 36.3873 152.565 36.1773C153.093 35.9673 153.696 35.8623 154.374 35.8623C155.142 35.8623 155.85 35.9823 156.498 36.2223C157.146 36.4623 157.698 36.7983 158.154 37.2303L157.56 38.3733Z" fill="white"/>
</g>
<defs>
<clipPath id="clip0_9_330">
<rect width="189.486" height="62.0406" fill="white"/>
</clipPath>
</defs>
</svg>
