<svg width="141" height="143" viewBox="0 0 141 143" fill="none" xmlns="http://www.w3.org/2000/svg">
<path d="M29.915 58.83C28.9946 58.83 28.25 58.0854 28.25 57.165V50.2275C28.25 49.3071 28.9946 48.5625 29.915 48.5625C30.8354 48.5625 31.58 49.3071 31.58 50.2275V57.165C31.58 58.0854 30.8354 58.83 29.915 58.83ZM49.5389 50.7039C49.1134 50.7039 48.6879 50.542 48.3641 50.2183L43.457 45.3111C42.8049 44.659 42.8049 43.6091 43.457 42.957C44.1091 42.3049 45.159 42.3049 45.8111 42.957L50.7183 47.8641C51.3704 48.5163 51.3704 49.5661 50.7183 50.2183C50.3899 50.542 49.9644 50.7039 49.5389 50.7039ZM10.2911 50.7039C9.86563 50.7039 9.44012 50.542 9.11637 50.2183C8.46425 49.5661 8.46425 48.5163 9.11637 47.8641L14.0235 42.957C14.6756 42.3049 15.7255 42.3049 16.3776 42.957C17.0298 43.6091 17.0298 44.659 16.3776 45.3111L11.4705 50.2183C11.1421 50.542 10.7166 50.7039 10.2911 50.7039ZM29.915 44.955C21.3449 44.955 14.375 37.9851 14.375 29.415C14.375 20.8449 21.3449 13.875 29.915 13.875C38.4851 13.875 45.455 20.8449 45.455 29.415C45.455 37.9851 38.4851 44.955 29.915 44.955ZM29.915 17.205C23.181 17.205 17.705 22.681 17.705 29.415C17.705 36.149 23.181 41.625 29.915 41.625C36.649 41.625 42.125 36.149 42.125 29.415C42.125 22.681 36.649 17.205 29.915 17.205ZM57.665 31.08H50.7275C49.8071 31.08 49.0625 30.3354 49.0625 29.415C49.0625 28.4946 49.8071 27.75 50.7275 27.75H57.665C58.5854 27.75 59.33 28.4946 59.33 29.415C59.33 30.3354 58.5854 31.08 57.665 31.08ZM9.1025 31.08H2.165C1.24463 31.08 0.5 30.3354 0.5 29.415C0.5 28.4946 1.24463 27.75 2.165 27.75H9.1025C10.0229 27.75 10.7675 28.4946 10.7675 29.415C10.7675 30.3354 10.0229 31.08 9.1025 31.08ZM44.6317 16.3633C44.2062 16.3633 43.7808 16.2014 43.457 15.8776C42.8049 15.2255 42.8049 14.1756 43.457 13.5235L48.3641 8.61638C49.0162 7.96425 50.0661 7.96425 50.7183 8.61638C51.3704 9.2685 51.3704 10.3184 50.7183 10.9705L45.8111 15.8776C45.4827 16.2014 45.0572 16.3633 44.6317 16.3633ZM15.1982 16.3633C14.7727 16.3633 14.3472 16.2014 14.0235 15.8776L9.11175 10.9659C8.45963 10.3138 8.45963 9.26388 9.11175 8.61175C9.76388 7.95963 10.8137 7.95963 11.4659 8.61175L16.373 13.5189C17.0251 14.171 17.0251 15.2209 16.373 15.873C16.0493 16.2014 15.6237 16.3633 15.1982 16.3633ZM29.915 10.2675C28.9946 10.2675 28.25 9.52288 28.25 8.6025V1.665C28.25 0.744625 28.9946 0 29.915 0C30.8354 0 31.58 0.744625 31.58 1.665V8.6025C31.58 9.52288 30.8354 10.2675 29.915 10.2675ZM140.915 142.08H2.165V138.75H74.5V123.58H43.79C42.8696 123.58 42.125 122.835 42.125 121.915V66.415C42.125 65.4946 42.8696 64.75 43.79 64.75H127.04C127.96 64.75 128.705 65.4946 128.705 66.415V121.915C128.705 122.835 127.96 123.58 127.04 123.58H96.33V138.745H140.915V142.08ZM87.08 138.75H92.9954V123.58H87.08V138.75ZM77.83 138.75H83.7454V123.58H77.83V138.75ZM100.955 120.25H125.37V95.83H100.955V120.25ZM73.205 120.25H97.625V95.83H73.205V120.25ZM45.455 120.25H69.875V95.83H45.455V120.25ZM100.955 92.5H125.37V68.08H100.955V92.5ZM73.205 92.5H97.625V68.08H73.205V92.5ZM45.455 92.5H69.875V68.08H45.455V92.5Z" fill="#070600"/>
</svg>
